<?xml version="1.0" encoding="utf-8"?>
<!-- Generator: Adobe Illustrator 16.0.0, SVG Export Plug-In . SVG Version: 6.00 Build 0)  -->
<!DOCTYPE svg PUBLIC "-//W3C//DTD SVG 1.1//EN" "http://www.w3.org/Graphics/SVG/1.1/DTD/svg11.dtd">
<svg version="1.1" id="Layer_1" xmlns="http://www.w3.org/2000/svg" xmlns:xlink="http://www.w3.org/1999/xlink" x="0px" y="0px"
	 width="60px" height="60px" viewBox="0 0 60 60" enable-background="new 0 0 60 60" xml:space="preserve">
<linearGradient id="SVGID_1_" gradientUnits="userSpaceOnUse" x1="2.3901" y1="29.9551" x2="57.1465" y2="29.9551">
	<stop  offset="0" style="stop-color:#00ADEE"/>
	<stop  offset="1" style="stop-color:#2E3191"/>
</linearGradient>
<path fill="url(#SVGID_1_)" d="M39.747,35.302c-1.679,2.379-4.449,3.93-7.58,3.93c-3.474,0-6.5-1.907-8.09-4.729
	c-4.745,0.895-1.159-3.796-1.159-3.796c-0.02-0.248-0.029-0.499-0.029-0.751c0-5.125,4.153-9.279,9.278-9.279
	c2.673,0,5.082,1.132,6.776,2.941l17.484-10.928C51.028,5.117,42.175,0.18,32.167,0.18C15.722,0.18,2.39,13.51,2.39,29.955
	c0,16.442,13.332,29.775,29.777,29.775c10.464,0,19.667-5.401,24.979-13.566L39.747,35.302z"/>
<path fill="none" d="M24.077,34.503"/>
<path fill="#1B75BB" stroke="#1B75BB" stroke-width="0.3" stroke-miterlimit="10" d="M23.874,34.764c0,0,22.51-6.725,16.416-9.656
	c0,0,4.777,0.76,0,3.531C35.513,31.407,26.513,34.482,23.874,34.764z"/>
</svg>
